<svg width="64" height="64" viewBox="0 0 64 64" fill="none" xmlns="http://www.w3.org/2000/svg">
<g filter="url(#filter0_d_2_4275)">
<rect x="10" y="10" width="44" height="44" rx="3" fill="white" shape-rendering="crispEdges"/>
<rect x="8.5" y="8.5" width="47" height="47" rx="4.5" stroke="#EB5757" stroke-opacity="0.75" stroke-width="3" shape-rendering="crispEdges"/>
</g>
<path d="M46.3357 38.8992C46.3768 34.3445 39.7491 34.0549 31.5719 33.9725C23.3954 33.8905 16.7631 34.0459 16.7231 38.6022C16.6812 43.1564 23.2771 46.9163 31.4547 46.9986C39.6319 47.081 46.295 43.455 46.3357 38.8992Z" fill="#EE8E26"/>
<path d="M31.2637 45.1372C27.0815 45.1372 22.6569 44.1334 18.9531 41.4877C18.2311 40.9724 17.0408 39.8254 16.916 38.1502C18.2 41.6155 24.241 44.2385 31.5 44.2385C38.8158 44.2385 44.8956 41.5741 46.1144 38.0687C46.089 39.059 45.7079 40.2076 44.4803 41.2576C42.0594 43.3285 36.8798 45.1376 31.2637 45.1372Z" fill="#F3A130"/>
<path d="M46.3369 36.7736C46.3369 40.8966 39.6934 44.2385 31.5 44.2385C23.3067 44.2385 16.6644 40.8966 16.6644 36.7736C16.6644 32.6498 23.3067 29.3075 31.5 29.3075C39.6934 29.3075 46.3369 32.6498 46.3369 36.7736Z" fill="#601F07"/>
<path d="M31.5 42.519C25.2657 42.519 20.0577 40.445 18.8059 37.6792C21.2699 39.5784 25.3918 40.8251 30.0903 40.8657C31.3671 41.5936 32.3814 42.1799 32.9047 42.4833C32.4433 42.5069 31.9749 42.519 31.5 42.519ZM33.607 42.4387C34.0712 42.0366 35.0252 41.2191 36.2724 40.191C38.3271 39.6997 40.1276 38.9621 41.5353 38.0528C41.8204 38.2411 42.1259 38.3778 42.4801 38.3778C42.5204 38.3778 42.5616 38.3762 42.6038 38.3726C43.1344 38.3255 43.3415 38.1251 43.4372 37.8419C43.4549 37.8423 43.4729 37.8423 43.4906 37.8423C43.7069 37.8423 43.9263 37.8208 44.1511 37.7705C42.9811 40.1744 38.8151 42.0379 33.607 42.4387Z" fill="#6A260B"/>
<path d="M44.7681 33.2487C44.8127 37.3607 38.4966 40.7712 30.6617 40.8649C22.826 40.9594 16.44 37.7007 16.3958 33.5879C16.352 29.475 22.6681 26.0641 30.5026 25.9716C38.3371 25.8779 44.7247 29.1355 44.7681 33.2487Z" fill="#DB2C1A"/>
<path d="M44.729 32.8324C44.772 36.7123 38.464 39.935 30.6383 40.0295C22.8137 40.1216 16.4365 37.0507 16.395 33.1704C16.3532 29.2905 22.6643 26.0674 30.4884 25.9753C38.3133 25.8808 44.689 28.9517 44.729 32.8324Z" fill="#FA5E43"/>
<path d="M18.6469 34.7251C23.1092 36.7643 33.2947 42.7101 33.2947 42.7101C33.2947 42.7101 40.891 36.0319 46.6758 32.5403C52.7149 28.8957 12.2398 31.7966 18.6469 34.7251Z" fill="#FFD177"/>
<path d="M33.2948 41.9157C33.2948 41.9157 29.5886 39.7524 25.6681 37.5883C25.7653 37.5773 25.8571 37.5708 25.9466 37.5708C26.317 37.5708 26.6432 37.6796 27.115 38.0155C27.8028 38.506 28.1309 38.9998 29.0546 39.0258C29.0772 39.0266 29.0991 39.0266 29.121 39.0266C30.1131 39.0266 30.4562 38.3786 31.2496 37.8516C31.4463 37.721 31.6745 37.5875 31.9189 37.4678C32.2789 37.8548 32.6562 38.1291 33.0247 38.1291C33.3424 38.1291 33.6536 37.925 33.941 37.4118C33.9906 37.3233 34.0371 37.2414 34.0809 37.1655C34.638 37.4183 34.7917 37.9912 35.4902 38.237C35.6857 38.306 35.879 38.3356 36.0703 38.3356C36.6947 38.3356 37.2998 38.0179 37.9165 37.6999C38.2642 37.5205 38.6154 37.3412 38.9754 37.2191C35.7726 39.7378 33.2948 41.9157 33.2948 41.9157Z" fill="#FEC750"/>
<path d="M15.738 35.3937C16.2517 35.9593 16.9679 35.6875 17.6618 35.4156C18.5336 35.074 19.3696 34.7324 19.7227 36.0526C19.8995 36.7111 19.5506 37.5522 20.5742 37.7153C20.9687 37.7778 21.285 37.6333 21.6062 37.4889C21.9727 37.3246 22.3458 37.1598 22.8483 37.3023C23.8104 37.5753 23.9222 37.8853 24.9123 37.712C25.8978 37.5396 26.2763 37.4183 27.115 38.0155C27.8028 38.506 28.1309 38.9998 29.0545 39.0258C30.0981 39.0554 30.4385 38.39 31.2496 37.8516C31.9073 37.415 32.9144 36.9481 33.7085 37.0604C34.5991 37.1862 34.6579 37.9441 35.4901 38.237C36.3247 38.5308 37.1111 38.1153 37.9164 37.6999C38.5604 37.3676 39.2166 37.0353 39.9197 37.0657C41.3782 37.1286 42.7445 38.2046 44.362 37.7153C46.1694 37.168 45.4213 35.3661 46.816 34.0832C47.6982 33.2726 47.9633 33.5051 48.188 32.2543C48.3594 31.3041 48.7782 30.5137 48.2979 29.6572C46.9255 27.2083 42.2934 26.8809 39.9144 26.3839C36.4983 25.671 32.6404 25.8921 29.2613 26.7113C28.0164 27.0139 12.7661 32.1236 15.738 35.3937Z" fill="#769927"/>
<path d="M14.5688 34.1169C15.0011 34.3113 15.5271 34.1823 16.0546 34.0528C16.5917 33.921 17.1304 33.7895 17.5734 34.0001C18.4886 34.4342 17.9023 35.4538 18.585 36.2161C19.5252 37.267 19.7519 36.4997 20.6533 36.1561C21.8113 35.7159 21.6488 36.4125 22.1502 37.3936C22.4879 38.052 23.4746 39.186 24.3018 38.728C24.9284 38.3807 25.1582 36.6908 25.6442 36.0745C26.8848 34.4995 29.1617 33.624 30.425 35.3974C31.2472 36.5521 32.786 39.4737 33.9409 37.4118C34.5472 36.3297 34.669 36.2056 35.6511 37.1696C36.5521 38.0549 36.466 38.2322 37.5334 37.6086C38.3502 37.1315 39.1571 36.6734 40.1157 37.0572C40.9556 37.394 41.5741 38.4638 42.6038 38.3726C43.8203 38.265 43.335 37.3501 43.7127 36.4896C44.1637 35.4619 45.2273 35.201 46.2005 35.1978C46.3757 35.197 46.5985 35.2274 46.8394 35.2574C47.5771 35.3503 48.4854 35.4428 48.7128 34.6569C49.0725 33.4171 47.2002 33.5664 47.2578 32.3642C47.2955 31.5828 47.7016 31.5933 48.1204 31.6035C48.4112 31.6108 48.7086 31.6177 48.8915 31.3584C49.3964 30.6448 47.9994 29.5063 47.5675 29.1959C46.2427 28.2453 44.3186 28.2993 42.5028 28.3532C41.6525 28.3784 40.8257 28.4039 40.0957 28.326C36.9186 27.9869 33.8288 27.6233 30.6233 27.8854C28.623 28.0497 26.1506 28.0209 24.3025 28.89C23.1626 29.426 22.1152 30.364 20.8607 30.5802C20.3029 30.6764 19.763 30.5782 19.2244 30.4796C18.7841 30.3993 18.3441 30.319 17.8958 30.3449C16.9402 30.4009 12.4307 33.1533 14.5688 34.1169Z" fill="#A4C256"/>
<path d="M47.362 29.4459C47.362 35.7666 40.2763 36.0754 31.5366 36.0754C22.7972 36.0754 15.7119 35.7666 15.7119 29.4459C15.7119 23.1243 22.7972 18 31.5366 18C40.2763 18 47.362 23.1243 47.362 29.4459Z" fill="#EE8E26"/>
<path d="M36.0556 24.0445C37.4707 24.1065 39.5735 24.5188 40.7461 23.5978C42.3448 22.3408 40.6669 20.4416 39.2815 19.6562C38.6798 19.3154 38.0412 19.0387 37.3807 18.8098C35.6687 18.3173 33.811 18.0353 31.8661 18.0065C30.1318 18.0317 28.4047 18.2714 26.8218 18.6512C25.6299 18.936 24.2775 19.3166 22.9938 19.8136C21.1454 20.6725 19.5601 21.8012 18.3452 23.1239C17.0124 25.6057 19.2581 28.1451 23.0269 27.4631C25.5024 27.0156 27.2475 25.3939 29.6123 24.7111C31.6713 24.1171 33.8633 23.9495 36.0556 24.0445Z" fill="#F69F37"/>
<path d="M31.5365 36.0754C31.5035 36.0754 31.47 36.0754 31.437 36.0754C31.47 36.0754 31.5035 36.0754 31.5365 36.0754C40.2762 36.0754 47.3619 35.7666 47.3619 29.4459C47.3619 35.7666 40.2762 36.0754 31.5365 36.0754Z" fill="#ADA748"/>
<path d="M31.5366 36.0754C31.5035 36.0754 31.4701 36.0754 31.4371 36.0754C23.2256 36.0729 16.5007 35.7755 15.7799 30.4362C16.7343 31.203 17.6138 32.4153 18.3638 32.8766C19.5095 33.5818 21.1002 34.0476 22.4326 34.3555C24.3725 34.8042 26.4726 34.9337 28.5712 34.9337C29.7192 34.9337 30.8665 34.8947 31.9865 34.8485C35.0502 34.7202 38.2423 34.4046 40.9525 33.1554C42.4283 32.4746 43.6597 31.8481 44.8269 30.8225C45.1627 30.5275 46.3746 29.1951 47.2932 28.4052C47.3362 28.748 47.362 29.0945 47.362 29.4459C47.362 35.7666 40.2763 36.0754 31.5366 36.0754Z" fill="#E18226"/>
<path d="M25.6711 22.3217C25.5305 22.5092 25.3203 22.581 25.2012 22.4816C25.0821 22.3818 25.0994 22.1493 25.2404 21.9615C25.3806 21.774 25.7099 21.8012 25.7099 21.8012C25.7099 21.8012 25.8117 22.1339 25.6711 22.3217Z" fill="#FEE9C6"/>
<path d="M32.4279 22.3238C32.2208 22.4195 32.0026 22.3765 31.9423 22.2296C31.8819 22.0824 32.0018 21.8864 32.2101 21.7915C32.4183 21.6969 32.6957 21.8856 32.6957 21.8856C32.6957 21.8856 32.6366 22.2292 32.4279 22.3238Z" fill="#FEE9C6"/>
<path d="M34.7536 18.9023C34.5849 19.0618 34.3655 19.0938 34.2645 18.9742C34.163 18.8549 34.2184 18.6285 34.3882 18.4694C34.5569 18.3104 34.8773 18.3976 34.8773 18.3976C34.8773 18.3976 34.923 18.7433 34.7536 18.9023Z" fill="#FEE9C6"/>
<path d="M37.2551 22.1165C37.1429 22.3238 36.9455 22.4289 36.8129 22.3494C36.6811 22.2698 36.6661 22.0369 36.7776 21.8288C36.8901 21.6211 37.2198 21.5959 37.2198 21.5959C37.2198 21.5959 37.3677 21.9083 37.2551 22.1165Z" fill="#FEE9C6"/>
<path d="M32.1571 24.0327C32.2731 24.2384 32.2612 24.4717 32.1302 24.554C32.0003 24.636 31.8005 24.535 31.6845 24.3293C31.5689 24.1232 31.711 23.8083 31.711 23.8083C31.711 23.8083 32.0418 23.8266 32.1571 24.0327Z" fill="#FEE9C6"/>
<path d="M38.3798 23.1462C38.487 23.3567 38.4647 23.5892 38.331 23.6651C38.1969 23.7406 38.0017 23.6306 37.8953 23.4196C37.7881 23.2087 37.9437 22.9007 37.9437 22.9007C37.9437 22.9007 38.2734 22.9348 38.3798 23.1462Z" fill="#FEE9C6"/>
<path d="M40.6524 23.515C40.4645 23.6489 40.2432 23.6497 40.1583 23.5162C40.0734 23.3835 40.1572 23.1673 40.3446 23.0338C40.5329 22.8999 40.8387 23.0322 40.8387 23.0322C40.8387 23.0322 40.8407 23.3815 40.6524 23.515Z" fill="#FEE9C6"/>
<path d="M29.8171 26.1019C29.952 26.2942 29.9616 26.5275 29.8402 26.6228C29.7176 26.7177 29.5094 26.6394 29.3749 26.4467C29.2404 26.254 29.3526 25.9258 29.3526 25.9258C29.3526 25.9258 29.6826 25.9091 29.8171 26.1019Z" fill="#FEE9C6"/>
<path d="M28.5074 19.999C28.3356 20.1552 28.1162 20.1832 28.0171 20.0619C27.918 19.9406 27.9771 19.7154 28.1489 19.5588C28.3206 19.403 28.6391 19.4959 28.6391 19.4959C28.6391 19.4959 28.6795 19.8428 28.5074 19.999Z" fill="#FEE9C6"/>
<path d="M22.7242 24.7366C22.5359 24.8697 22.315 24.8697 22.2305 24.7366C22.1456 24.6032 22.2305 24.3873 22.4184 24.2538C22.6066 24.1216 22.9121 24.2538 22.9121 24.2538C22.9121 24.2538 22.9121 24.6036 22.7242 24.7366Z" fill="#FEE9C6"/>
<path d="M28.7802 23.3701C28.9681 23.5032 29.0518 23.7191 28.9677 23.8525C28.8828 23.986 28.6619 23.9856 28.474 23.8521C28.2857 23.7191 28.2857 23.3701 28.2857 23.3701C28.2857 23.3701 28.5919 23.2371 28.7802 23.3701Z" fill="#FEE9C6"/>
<path d="M24.6802 26.0297C24.8712 26.1579 24.9603 26.3721 24.8792 26.5072C24.7978 26.6427 24.5773 26.6484 24.3855 26.5202C24.1938 26.392 24.1861 26.0427 24.1861 26.0427C24.1861 26.0427 24.4881 25.9015 24.6802 26.0297Z" fill="#FEE9C6"/>
<path d="M20.3056 23.0545C20.4742 23.2148 20.5292 23.4412 20.4277 23.56C20.3267 23.6793 20.1077 23.6465 19.939 23.4866C19.7704 23.3267 19.8168 22.9819 19.8168 22.9819C19.8168 22.9819 20.1373 22.8947 20.3056 23.0545Z" fill="#FEE9C6"/>
<path d="M23.3316 20.7873C23.4945 20.9533 23.5418 21.1809 23.4373 21.2969C23.332 21.4126 23.1142 21.3724 22.9505 21.2064C22.7872 21.0405 22.8444 20.6973 22.8444 20.6973C22.8444 20.6973 23.1676 20.6218 23.3316 20.7873Z" fill="#FEE9C6"/>
<path d="M25.688 19.965C25.758 20.1938 25.6969 20.4177 25.5524 20.4664C25.4076 20.5155 25.2343 20.3703 25.1647 20.1427C25.0963 19.9146 25.3011 19.6412 25.3011 19.6412C25.3011 19.6412 25.6193 19.7373 25.688 19.965Z" fill="#FEE9C6"/>
<path d="M27.0858 27.2858C27.3117 27.3109 27.4812 27.4607 27.4654 27.6197C27.45 27.7791 27.2541 27.8883 27.0286 27.8635C26.8038 27.838 26.649 27.5296 26.649 27.5296C26.649 27.5296 26.8603 27.2614 27.0858 27.2858Z" fill="#FEE9C6"/>
<path d="M34.898 26.4695C34.6717 26.4828 34.4816 26.3631 34.4731 26.2029C34.465 26.0434 34.6414 25.9031 34.8685 25.8897C35.094 25.8767 35.293 26.1554 35.293 26.1554C35.293 26.1554 35.124 26.4561 34.898 26.4695Z" fill="#FEE9C6"/>
<path d="M33.9168 27.457C34.0036 27.6777 33.9606 27.907 33.82 27.9682C33.6801 28.0299 33.4961 27.8997 33.4089 27.6789C33.3228 27.4582 33.5061 27.1677 33.5061 27.1677C33.5061 27.1677 33.8303 27.2359 33.9168 27.457Z" fill="#FEE9C6"/>
<path d="M20.8711 26.3137C20.8554 26.5526 20.7205 26.7372 20.5691 26.7267C20.4173 26.7157 20.3071 26.5133 20.3224 26.2747C20.3374 26.0357 20.6241 25.8617 20.6241 25.8617C20.6241 25.8617 20.8865 26.0747 20.8711 26.3137Z" fill="#FEE9C6"/>
<path d="M32.1524 18.9356C31.9999 19.1121 31.7851 19.1677 31.6725 19.0597C31.5611 18.9518 31.5937 18.7205 31.747 18.5445C31.9 18.3672 32.2265 18.4195 32.2265 18.4195C32.2265 18.4195 32.3049 18.7591 32.1524 18.9356Z" fill="#FEE9C6"/>
<path d="M40.3842 24.4327C40.4453 24.6636 40.3769 24.8855 40.2305 24.9293C40.0849 24.9728 39.917 24.821 39.8548 24.5914C39.7933 24.3605 40.0073 24.0952 40.0073 24.0952C40.0073 24.0952 40.3224 24.2027 40.3842 24.4327Z" fill="#FEE9C6"/>
<path d="M35.2899 23.5698C35.0713 23.6306 34.8623 23.5548 34.8231 23.3994C34.7847 23.2444 34.9311 23.0695 35.1509 23.0087C35.3702 22.9478 35.6173 23.1787 35.6173 23.1787C35.6173 23.1787 35.5093 23.5093 35.2899 23.5698Z" fill="#FEE9C6"/>
<path d="M38.1143 26.0524C38.0052 26.2622 37.8092 26.3697 37.6755 26.293C37.543 26.2159 37.5238 25.9834 37.6317 25.7737C37.7408 25.5639 38.0709 25.5331 38.0709 25.5331C38.0709 25.5331 38.2234 25.8423 38.1143 26.0524Z" fill="#FEE9C6"/>
<path d="M38.7222 20.4717C38.7003 20.7099 38.56 20.8908 38.4086 20.8758C38.258 20.86 38.1535 20.6543 38.1747 20.4165C38.1966 20.178 38.4878 20.0124 38.4878 20.0124C38.4878 20.0124 38.7437 20.2339 38.7222 20.4717Z" fill="#FEE9C6"/>
<path d="M33.3846 20.6392C33.1579 20.638 32.9743 20.5066 32.975 20.3463C32.9758 20.1861 33.1606 20.0579 33.3865 20.0583C33.6132 20.0603 33.7957 20.3512 33.7957 20.3512C33.7957 20.3512 33.6109 20.6405 33.3846 20.6392Z" fill="#FEE9C6"/>
<path d="M36.4983 20.2051C36.3296 20.3642 36.1099 20.3966 36.0088 20.2761C35.9085 20.1569 35.9635 19.9309 36.1329 19.7714C36.3024 19.6128 36.6224 19.7004 36.6224 19.7004C36.6224 19.7004 36.667 20.0457 36.4983 20.2051Z" fill="#FEE9C6"/>
<defs>
<filter id="filter0_d_2_4275" x="0" y="0" width="64" height="64" filterUnits="userSpaceOnUse" color-interpolation-filters="sRGB">
<feFlood flood-opacity="0" result="BackgroundImageFix"/>
<feColorMatrix in="SourceAlpha" type="matrix" values="0 0 0 0 0 0 0 0 0 0 0 0 0 0 0 0 0 0 127 0" result="hardAlpha"/>
<feOffset/>
<feGaussianBlur stdDeviation="3.5"/>
<feComposite in2="hardAlpha" operator="out"/>
<feColorMatrix type="matrix" values="0 0 0 0 0 0 0 0 0 0 0 0 0 0 0 0 0 0 0.2 0"/>
<feBlend mode="normal" in2="BackgroundImageFix" result="effect1_dropShadow_2_4275"/>
<feBlend mode="normal" in="SourceGraphic" in2="effect1_dropShadow_2_4275" result="shape"/>
</filter>
</defs>
</svg>
