<svg width="13" height="14" viewBox="0 0 13 14" fill="none" xmlns="http://www.w3.org/2000/svg">
<path d="M12.8864 7.05917C12.8864 6.31176 12.7534 5.59516 12.5094 4.93221C12.3427 6.88555 11.3013 7.88886 10.2132 7.42164C9.19395 6.98378 9.88083 5.27691 9.93157 4.46245C10.0171 3.08181 9.92722 1.50145 7.41931 0.1875C8.4614 2.18107 7.54001 3.41963 6.57367 3.49502C5.50149 3.57875 4.51956 2.57363 4.88203 0.942521C3.70836 1.80737 3.67429 3.26304 4.03639 4.20473C4.41408 5.1863 4.02117 6.00185 3.10014 6.09247C2.07073 6.19396 1.49875 4.9902 2.02615 3.07202C1.11345 4.14674 0.5625 5.53862 0.5625 7.05917C0.5625 10.4624 3.32124 13.2211 6.72446 13.2211C10.1277 13.2211 12.8864 10.4624 12.8864 7.05917Z" fill="#F4900C"/>
<path d="M10.4919 8.87115C10.5456 9.989 9.56364 10.4272 9.03517 10.2155C8.27181 9.90998 8.4766 9.38513 8.28015 8.29772C8.08369 7.21032 7.32867 6.4553 6.21118 6.12291C7.02673 8.41842 5.75918 9.26442 5.09478 9.41557C4.41624 9.56998 3.73443 9.41521 3.6565 7.96316C2.86487 8.75117 2.37482 9.84147 2.37482 11.0463C2.37482 11.1797 2.38315 11.3109 2.39475 11.4414C3.50753 12.5411 5.03606 13.2211 6.72443 13.2211C8.41281 13.2211 9.94134 12.5411 11.0541 11.4414C11.0657 11.3109 11.074 11.1797 11.074 11.0463C11.074 10.2536 10.8624 9.5109 10.4919 8.87115Z" fill="#FFCC4D"/>
</svg>
